<svg xmlns="http://www.w3.org/2000/svg" xmlns:xlink="http://www.w3.org/1999/xlink" viewBox="0 0 265.625 85" fill="#fff" fill-rule="evenodd" stroke="#000" stroke-linecap="round" stroke-linejoin="round"><use xlink:href="#A" x="7.813" y="2.5"/><symbol id="A" overflow="visible"><g stroke="none"><path d="M.013 52.482H17.09v8.525H.013zm25.614 0h17.066v8.525H25.627zM0 35.432h42.698v8.525H0zm.013-17.05H25.63v8.525H.013zm34.152 0h8.538v8.525h-8.538z" fill="#3d515b"/><path d="M166.657 18.333c-13.713 0-20.795 9.682-20.795 21.626s6.907 21.628 20.795 21.628 20.795-9.683 20.795-21.628-7.083-21.626-20.795-21.626h0zm10.374 21.665h0c-.01 7.681-2.602 13.901-10.374 13.901s-10.365-6.22-10.373-13.901h0v-.019-.019h0c.008-7.68 2.601-13.9 10.374-13.9s10.364 6.22 10.374 13.9h0v.019.019zm-71.775 21.009V1.214l8.511-1.203c.694-.093 1.615.4 1.615 1.375v22.165a21.43 21.43 0 0 1 5.411-3.766c1.969-.955 4.277-1.433 6.93-1.433 2.296 0 4.331.389 6.107 1.167s3.26 1.869 4.449 3.274 2.091 3.084 2.706 5.035.922 4.1.922 6.447v26.73h-10.126v-26.73c0-2.565-.595-4.551-1.783-5.957s-2.973-2.108-5.351-2.108c-1.749 0-3.388.396-4.918 1.188s-2.98 1.868-4.346 3.234v30.373h-10.126 0zm135.189.576c-6.968 0-11.336-4.049-11.336-11.603V27.592h-7.853l1.801-6.218c.133-.453.478-.941 1.171-1.037l4.872-.678L231.03 7.4l6.569-.932c.849-.127 1.619.484 1.619 1.407v11.784h9.933v7.933h-9.933v22.086c0 3.015 1.839 4.168 3.601 4.168 1.077 0 2.553-.571 3.654-1.081.68-.314 1.734-.081 2.007.867l1.521 5.299c-1.105.712-4.597 2.652-9.555 2.652h0zM215.69 27.724c-1.974-.64-5.683-1.665-9.212-1.665-3.595 0-6.424 1.24-6.424 4.225 0 3.728 6.097 4.813 10.27 6.333 2.79 1.016 10.272 2.997 10.272 11.032 0 9.76-8.118 13.933-16.778 13.933s-13.777-3.216-13.777-3.216l1.615-5.673c.246-.842 1.226-1.137 1.85-.898 2.229.858 6.254 2.05 10.803 2.05 4.606 0 6.834-1.404 6.834-4.398 0-3.984-6.22-5.202-10.333-6.497-2.834-.892-10.334-2.971-10.334-11.808 0-8.705 7.656-12.789 15.838-12.789 6.926 0 10.323 1.446 12.861 2.737l-1.624 5.654c-.248.871-.964 1.271-1.861.98h0zm-114.386-7.929c0-.942-.806-1.481-1.574-1.393-3.398.389-5.823 1.986-7.391 3.472-3.08-2.409-7.355-3.56-12.153-3.56-9.62 0-17.136 4.636-17.136 14.745 0 5.803 2.474 9.802 6.403 12.156-2.918 1.379-4.861 4.305-4.861 7.182 0 4.812 3.808 6.319 3.808 6.319s-6.658 3.226-6.658 9.681c0 8.263 7.616 11.604 16.922 11.604 13.414 0 22.643-5.532 22.643-15.689 0-6.252-4.791-9.703-15.232-10.113-6.196-.244-10.21-.467-11.204-.795-1.314-.436-1.96-1.486-1.96-2.646 0-1.28 1.053-2.499 2.713-3.335 1.448.256 2.976.382 4.563.382 9.628 0 17.137-4.623 17.137-14.745 0-2.455-.444-4.585-1.251-6.406 1.415-.753 3.155-1.284 5.233-1.284-.001 0-.001-4.716-.001-5.575h0zM74.792 61.059l10.1.424c5.671.262 7.439 1.482 7.439 4.414 0 3.582-4.928 7.067-11.816 7.067-6.538 0-9.804-2.271-9.804-6.053 0-2.17 1.147-4.597 4.081-5.853h0zm5.411-20.312c-4.558 0-8.113-2.417-8.113-7.689s3.559-7.69 8.113-7.69 8.113 2.41 8.113 7.69-3.554 7.689-8.113 7.689h0z" fill="#404041"/></g></symbol></svg>